<?xml version="1.0" encoding="UTF-8"?>
<!DOCTYPE svg PUBLIC "-//W3C//DTD SVG 1.1//EN" "http://www.w3.org/Graphics/SVG/1.1/DTD/svg11.dtd">
<!-- Creator: CorelDRAW X7 -->
<svg xmlns="http://www.w3.org/2000/svg" xml:space="preserve" width="148.035mm" height="38.3647mm" version="1.1" style="shape-rendering:geometricPrecision; text-rendering:geometricPrecision; image-rendering:optimizeQuality; fill-rule:evenodd; clip-rule:evenodd"
viewBox="0 0 13069 3387"
 xmlns:xlink="http://www.w3.org/1999/xlink">
 <defs>
  <style type="text/css">
   <![CDATA[
    .fil0 {fill:#150162}
   ]]>
  </style>
 </defs>
 <g id="Camada_x0020_1">
  <metadata id="CorelCorpID_0Corel-Layer"/>
  <path class="fil0" d="M0 0l3399 0 0 3387 -3399 0 0 -3387zm3527 0l9542 0 0 3387 -9542 0 0 -3387zm-1828 158c470,0 890,211 1172,543 -218,174 -720,209 -1126,216 -114,1 -215,-12 -323,-12 -511,0 -926,414 -926,926 0,511 415,925 926,925 453,0 829,-325 910,-754 18,-99 8,-182 43,-288 115,-344 452,-638 659,-781 128,224 201,484 201,760 0,849 -688,1536 -1536,1536 -848,0 -1535,-687 -1535,-1536 0,-848 687,-1535 1535,-1535zm3224 2633c-141,74 -273,111 -397,111 -217,0 -392,-95 -525,-285 -133,-190 -199,-441 -199,-751 0,-314 66,-569 198,-763 132,-195 305,-293 518,-293 120,0 250,30 387,90l0 281c-140,-94 -271,-142 -393,-142 -141,0 -258,76 -349,228 -91,151 -137,343 -137,578 0,236 52,430 155,580 102,150 235,226 396,226 98,0 213,-38 346,-112l0 252zm93 -641c0,-219 37,-394 109,-524 73,-131 171,-196 294,-196 123,0 221,65 293,196 73,130 110,305 110,524 0,220 -37,395 -110,525 -72,131 -170,196 -293,196 -123,0 -221,-65 -294,-196 -72,-130 -109,-305 -109,-525zm153 0c0,180 21,319 65,416 43,98 105,147 185,147 79,0 141,-49 185,-147 43,-97 65,-236 65,-416 0,-180 -22,-318 -65,-416 -44,-97 -106,-146 -185,-146 -80,0 -142,49 -185,146 -44,98 -65,236 -65,416zm708 688l0 -1377 136 0 425 997 1 0 0 -997 118 0 0 1377 -133 0 -428 -1006 -2 0 0 1006 -117 0zm1068 0l0 -1215 -358 0 0 -158 859 0 0 158 -359 0 0 1215 -142 0zm557 0l0 -1373 260 0c108,0 183,13 225,40 90,55 134,152 134,291 0,96 -15,176 -46,240 -31,64 -83,123 -156,178l321 624 -173 0 -294 -570 -129 0 0 570 -142 0zm142 -728l75 0c77,0 138,-25 183,-75 44,-51 67,-118 67,-204 0,-80 -17,-134 -51,-164 -34,-29 -96,-44 -187,-44l-87 0 0 487zm567 40c0,-219 37,-394 110,-524 72,-131 170,-196 293,-196 123,0 221,65 293,196 73,130 110,305 110,524 0,220 -37,395 -110,525 -72,131 -170,196 -293,196 -123,0 -221,-65 -293,-196 -73,-130 -110,-305 -110,-525zm153 0c0,180 22,319 65,416 43,98 105,147 185,147 80,0 141,-49 185,-147 43,-97 65,-236 65,-416 0,-180 -22,-318 -65,-416 -44,-97 -105,-146 -185,-146 -80,0 -142,49 -185,146 -43,98 -65,236 -65,416zm762 688l0 -1373 142 0 0 1215 502 0 0 158 -644 0zm934 16l0 -1993 197 0 0 1764 692 0 0 229 -889 0zm947 -16l338 -1373 131 0 337 1373 -139 0 -81 -344 -390 0 -83 344 -113 0zm235 -502l312 0 -157 -656 -155 656zm630 512l0 -2120 177 0 0 929c86,-203 193,-304 320,-304 111,0 199,63 263,190 64,127 96,299 96,517 0,240 -38,434 -114,582 -76,148 -175,222 -297,222 -106,0 -195,-65 -268,-196l-44 180 -133 0zm177 -377c82,131 163,197 243,197 78,0 138,-51 181,-153 43,-101 65,-244 65,-427 0,-341 -69,-511 -207,-511 -100,0 -194,92 -282,277l0 617zm354 -2046c94,0 169,76 169,169 0,94 -75,169 -169,169 -93,0 -169,-75 -169,-169 0,-93 76,-169 169,-169zm-94 274l0 -210 89 0c22,0 39,2 49,6 10,3 18,10 24,20 7,9 10,20 10,33 0,16 -5,29 -14,39 -9,10 -23,17 -42,19 9,6 17,12 23,18 6,6 14,18 24,34l26 41 -51 0 -31 -46c-10,-16 -18,-26 -22,-31 -4,-4 -8,-7 -13,-8 -4,-2 -11,-3 -21,-3l-9 0 0 88 -42 0zm42 -121l32 0c20,0 33,-1 38,-3 5,-1 9,-4 12,-9 2,-4 4,-9 4,-15 0,-7 -2,-13 -6,-18 -4,-4 -9,-7 -16,-8 -3,0 -14,-1 -31,-1l-33 0 0 54z"/>
 </g>
</svg>
