<?xml version="1.0" encoding="UTF-8"?>
<!DOCTYPE svg PUBLIC "-//W3C//DTD SVG 1.1//EN" "http://www.w3.org/Graphics/SVG/1.1/DTD/svg11.dtd">
<!-- Creator: CorelDRAW X7 -->
<svg xmlns="http://www.w3.org/2000/svg" xml:space="preserve" width="176.808mm" height="69.6793mm" version="1.1" style="shape-rendering:geometricPrecision; text-rendering:geometricPrecision; image-rendering:optimizeQuality; fill-rule:evenodd; clip-rule:evenodd"
viewBox="0 0 15325 6040"
 xmlns:xlink="http://www.w3.org/1999/xlink">
 <defs>
  <style type="text/css">
   <![CDATA[
    .fil0 {fill:#150162}
   ]]>
  </style>
 </defs>
 <g id="Camada_x0020_1">
  <metadata id="CorelCorpID_0Corel-Layer"/>
  <path class="fil0" d="M37 3979l224 -634 85 0 238 634 -88 0 -68 -192 -246 0 -63 192 -82 0zm168 -260l199 0 -61 -176c-18,-53 -32,-97 -42,-132 -8,41 -19,82 -32,122l-64 186zm431 260l0 -459 64 0 0 65c31,-50 76,-75 135,-75 25,0 49,5 70,15 22,10 38,23 48,39 11,16 18,35 23,57 2,15 3,40 3,76l0 282 -71 0 0 -279c0,-32 -3,-55 -9,-71 -5,-16 -15,-28 -29,-38 -14,-9 -31,-14 -50,-14 -31,0 -57,11 -79,32 -22,21 -33,61 -33,120l0 250 -72 0zm702 0l0 -634 78 0 0 634 -78 0zm205 0l0 -459 65 0 0 65c31,-50 75,-75 134,-75 26,0 49,5 70,15 22,10 38,23 48,39 11,16 18,35 23,57 2,15 4,40 4,76l0 282 -72 0 0 -279c0,-32 -3,-55 -8,-71 -6,-16 -16,-28 -30,-38 -14,-9 -31,-14 -50,-14 -30,0 -57,11 -79,32 -22,21 -33,61 -33,120l0 250 -72 0zm454 0l0 -459 64 0 0 65c31,-50 76,-75 135,-75 25,0 49,5 70,15 22,10 38,23 48,39 11,16 18,35 23,57 2,15 3,40 3,76l0 282 -71 0 0 -279c0,-32 -3,-55 -9,-71 -5,-16 -15,-28 -29,-38 -14,-9 -31,-14 -50,-14 -31,0 -57,11 -79,32 -22,21 -33,61 -33,120l0 250 -72 0zm610 -69l9 69c-20,4 -38,7 -54,7 -26,0 -46,-5 -60,-14 -14,-9 -24,-20 -30,-35 -6,-15 -9,-45 -9,-92l0 -265 -53 0 0 -60 53 0 0 -114 72 -47 0 161 72 0 0 60 -72 0 0 269c0,23 1,37 4,43 2,7 6,12 12,15 6,4 14,6 24,6 8,0 19,-1 32,-3zm359 -79l75 10c-12,47 -34,83 -65,109 -32,26 -72,39 -121,39 -62,0 -111,-21 -147,-62 -36,-41 -54,-99 -54,-174 0,-77 18,-137 55,-179 36,-43 84,-64 142,-64 56,0 103,21 138,63 36,41 54,100 54,176 0,4 0,11 0,21l-316 0c3,50 16,89 40,115 23,27 53,40 88,40 26,0 49,-7 67,-22 19,-15 33,-39 44,-72zm-235 -125l236 0c-3,-39 -12,-68 -27,-87 -23,-30 -52,-45 -89,-45 -33,0 -60,12 -83,36 -22,24 -34,56 -37,96zm399 273l0 -459 65 0 0 70c16,-32 32,-54 46,-64 14,-11 29,-16 46,-16 24,0 49,8 74,25l-26 72c-17,-11 -35,-16 -52,-16 -16,0 -30,5 -42,15 -13,10 -21,24 -27,42 -8,28 -12,58 -12,91l0 240 -72 0zm273 0l0 -459 64 0 0 65c31,-50 76,-75 135,-75 25,0 49,5 70,15 22,10 38,23 48,39 11,16 18,35 23,57 2,15 3,40 3,76l0 282 -71 0 0 -279c0,-32 -3,-55 -9,-71 -5,-16 -15,-28 -29,-38 -14,-9 -31,-14 -50,-14 -31,0 -57,11 -79,32 -22,21 -33,61 -33,120l0 250 -72 0zm730 -57c-26,24 -52,42 -77,52 -24,10 -51,15 -79,15 -46,0 -82,-12 -107,-37 -25,-24 -38,-56 -38,-94 0,-22 5,-43 14,-61 10,-19 22,-34 38,-45 15,-11 32,-20 51,-26 14,-4 36,-7 64,-11 58,-8 101,-17 128,-27 1,-11 1,-17 1,-20 0,-32 -7,-54 -21,-67 -18,-18 -45,-26 -82,-26 -33,0 -58,6 -75,19 -16,13 -28,36 -35,68l-70 -10c6,-33 16,-59 31,-79 15,-20 36,-36 64,-47 27,-11 60,-16 96,-16 36,0 66,5 88,14 23,9 40,21 50,35 11,14 18,31 23,53 2,13 3,37 3,71l0 104c0,72 2,118 5,137 3,19 9,38 17,55l-75 0c-7,-16 -12,-35 -14,-57zm-5 -173c-26,12 -66,21 -118,29 -29,5 -50,10 -63,16 -12,6 -21,14 -28,25 -7,11 -10,23 -10,37 0,20 7,38 22,51 14,14 36,21 63,21 28,0 53,-6 74,-20 22,-13 38,-30 48,-53 7,-18 11,-43 11,-78l1 -28zm338 161l10 69c-20,4 -38,7 -54,7 -26,0 -46,-5 -60,-14 -15,-9 -25,-20 -31,-35 -5,-15 -8,-45 -8,-92l0 -265 -53 0 0 -60 53 0 0 -114 72 -47 0 161 71 0 0 60 -71 0 0 269c0,23 1,37 3,43 3,7 7,12 13,15 5,4 14,6 24,6 8,0 18,-1 31,-3zm71 -476l0 -89 72 0 0 89 -72 0zm0 545l0 -459 72 0 0 459 -72 0zm155 -229c0,-85 21,-148 65,-189 36,-34 81,-51 133,-51 58,0 106,21 143,62 37,41 55,98 55,171 0,59 -8,105 -24,139 -17,34 -40,60 -72,79 -31,19 -65,28 -102,28 -59,0 -107,-20 -144,-62 -36,-41 -54,-100 -54,-177zm73 0c0,58 12,102 36,132 23,29 53,43 89,43 36,0 65,-14 89,-44 24,-29 36,-74 36,-134 0,-56 -12,-99 -36,-128 -24,-30 -53,-44 -89,-44 -36,0 -66,14 -89,43 -24,29 -36,73 -36,132zm407 229l0 -459 65 0 0 65c31,-50 76,-75 134,-75 26,0 49,5 71,15 21,10 37,23 48,39 10,16 18,35 22,57 2,15 4,40 4,76l0 282 -72 0 0 -279c0,-32 -3,-55 -8,-71 -6,-16 -16,-28 -30,-38 -14,-9 -31,-14 -50,-14 -30,0 -57,11 -79,32 -22,21 -33,61 -33,120l0 250 -72 0zm731 -57c-27,24 -53,42 -77,52 -25,10 -51,15 -80,15 -46,0 -82,-12 -107,-37 -25,-24 -37,-56 -37,-94 0,-22 4,-43 14,-61 9,-19 22,-34 37,-45 15,-11 32,-20 52,-26 14,-4 35,-7 64,-11 57,-8 100,-17 128,-27 0,-11 0,-17 0,-20 0,-32 -7,-54 -20,-67 -19,-18 -46,-26 -82,-26 -34,0 -59,6 -75,19 -16,13 -28,36 -36,68l-70 -10c6,-33 17,-59 31,-79 15,-20 36,-36 64,-47 28,-11 60,-16 96,-16 37,0 66,5 89,14 22,9 39,21 50,35 10,14 18,31 22,53 2,13 4,37 4,71l0 104c0,72 1,118 4,137 3,19 9,38 18,55l-75 0c-8,-16 -12,-35 -14,-57zm-6 -173c-26,12 -65,21 -117,29 -30,5 -51,10 -63,16 -13,6 -22,14 -29,25 -6,11 -10,23 -10,37 0,20 8,38 22,51 15,14 36,21 64,21 27,0 52,-6 74,-20 21,-13 37,-30 47,-53 8,-18 12,-43 12,-78l0 -28zm181 230l0 -634 72 0 0 634 -72 0zm861 -68c36,27 69,47 100,59l-23 59c-42,-17 -84,-43 -126,-78 -43,26 -91,39 -143,39 -53,0 -101,-14 -144,-41 -43,-28 -76,-67 -99,-117 -23,-50 -35,-107 -35,-170 0,-62 12,-119 35,-170 23,-51 57,-90 100,-117 43,-27 91,-40 145,-40 53,0 102,14 145,41 43,28 77,67 99,117 23,50 34,106 34,169 0,52 -7,99 -22,141 -14,41 -36,78 -66,108zm-170 -107c45,14 81,34 110,61 46,-45 68,-113 68,-203 0,-51 -8,-96 -24,-134 -16,-38 -39,-68 -70,-89 -31,-21 -66,-32 -104,-32 -58,0 -105,22 -143,64 -38,43 -57,107 -57,192 0,82 19,145 56,189 38,44 86,66 144,66 27,0 53,-5 78,-17 -24,-17 -50,-29 -76,-36l18 -61zm630 175l0 -68c-33,52 -77,78 -134,78 -25,0 -48,-5 -70,-15 -21,-11 -37,-24 -48,-39 -10,-16 -17,-35 -22,-58 -3,-16 -4,-40 -4,-73l0 -284 72 0 0 254c0,41 1,68 4,82 5,21 14,37 29,48 14,12 32,18 54,18 21,0 41,-6 60,-18 19,-12 32,-28 40,-49 8,-20 12,-50 12,-89l0 -246 72 0 0 459 -65 0zm454 -57c-27,24 -52,42 -77,52 -25,10 -51,15 -79,15 -47,0 -83,-12 -108,-37 -25,-24 -37,-56 -37,-94 0,-22 5,-43 14,-61 10,-19 22,-34 37,-45 16,-11 33,-20 52,-26 14,-4 35,-7 64,-11 58,-8 101,-17 128,-27 0,-11 0,-17 0,-20 0,-32 -7,-54 -20,-67 -18,-18 -46,-26 -82,-26 -34,0 -59,6 -75,19 -16,13 -28,36 -36,68l-70 -10c7,-33 17,-59 32,-79 14,-20 36,-36 63,-47 28,-11 60,-16 97,-16 36,0 65,5 88,14 23,9 39,21 50,35 11,14 18,31 22,53 3,13 4,37 4,71l0 104c0,72 1,118 4,137 3,19 9,38 18,55l-75 0c-7,-16 -12,-35 -14,-57zm-6 -173c-26,12 -65,21 -117,29 -30,5 -51,10 -63,16 -12,6 -22,14 -28,25 -7,11 -10,23 -10,37 0,20 7,38 21,51 15,14 36,21 64,21 28,0 52,-6 74,-20 21,-13 37,-30 47,-53 8,-18 12,-43 12,-78l0 -28zm182 230l0 -634 71 0 0 634 -71 0zm181 0l0 -634 72 0 0 634 -72 0zm183 -545l0 -89 72 0 0 89 -72 0zm0 545l0 -459 72 0 0 459 -72 0zm337 -69l10 69c-20,4 -39,7 -54,7 -26,0 -46,-5 -61,-14 -14,-9 -24,-20 -30,-35 -6,-15 -9,-45 -9,-92l0 -265 -53 0 0 -60 53 0 0 -114 72 -47 0 161 72 0 0 60 -72 0 0 269c0,23 1,37 4,43 2,7 6,12 12,15 6,4 14,6 25,6 7,0 18,-1 31,-3zm67 246l-8 -72c16,5 30,7 41,7 16,0 29,-3 39,-9 9,-5 17,-14 23,-24 5,-8 12,-27 22,-58 2,-4 4,-11 7,-19l-161 -461 77 0 88 265c12,34 22,69 31,106 8,-35 18,-69 29,-103l91 -268 71 0 -160 467c-17,51 -30,85 -40,104 -13,26 -28,45 -44,57 -17,11 -36,17 -59,17 -14,0 -30,-3 -47,-9zm1063 -399l78 21c-16,69 -45,122 -87,158 -42,36 -94,54 -155,54 -62,0 -113,-14 -153,-42 -39,-27 -69,-68 -90,-120 -20,-53 -31,-110 -31,-170 0,-66 12,-124 35,-173 23,-49 56,-87 99,-112 43,-26 90,-38 142,-38 58,0 107,16 147,48 40,32 68,78 83,136l-76 20c-13,-46 -33,-80 -59,-101 -25,-21 -58,-32 -97,-32 -44,0 -82,12 -112,35 -30,24 -51,55 -63,94 -13,40 -19,80 -19,122 0,54 7,101 22,141 14,41 37,71 67,90 31,20 64,30 99,30 43,0 80,-13 110,-40 30,-27 50,-68 60,-121zm138 -7c0,-85 21,-148 65,-189 36,-34 81,-51 133,-51 58,0 106,21 143,62 37,41 55,98 55,171 0,59 -8,105 -24,139 -17,34 -40,60 -72,79 -31,19 -65,28 -102,28 -59,0 -107,-20 -143,-62 -37,-41 -55,-100 -55,-177zm73 0c0,58 12,102 36,132 23,29 53,43 89,43 36,0 66,-14 89,-44 24,-29 36,-74 36,-134 0,-56 -12,-99 -36,-128 -24,-30 -53,-44 -89,-44 -36,0 -66,14 -89,43 -24,29 -36,73 -36,132zm407 229l0 -459 65 0 0 65c31,-50 76,-75 134,-75 26,0 49,5 71,15 21,10 37,23 48,39 10,16 18,35 22,57 3,15 4,40 4,76l0 282 -72 0 0 -279c0,-32 -3,-55 -8,-71 -6,-16 -16,-28 -30,-38 -14,-9 -31,-14 -50,-14 -30,0 -56,11 -79,32 -22,21 -33,61 -33,120l0 250 -72 0zm610 -69l10 69c-20,4 -38,7 -54,7 -26,0 -46,-5 -61,-14 -14,-9 -24,-20 -30,-35 -6,-15 -9,-45 -9,-92l0 -265 -53 0 0 -60 53 0 0 -114 72 -47 0 161 72 0 0 60 -72 0 0 269c0,23 1,37 4,43 3,7 7,12 12,15 6,4 14,6 25,6 8,0 18,-1 31,-3zm70 69l0 -459 65 0 0 70c16,-32 31,-54 45,-64 14,-11 30,-16 46,-16 25,0 49,8 74,25l-25 72c-18,-11 -35,-16 -53,-16 -15,0 -29,5 -42,15 -12,10 -21,24 -26,42 -8,28 -12,58 -12,91l0 240 -72 0zm246 -229c0,-85 21,-148 65,-189 36,-34 81,-51 133,-51 58,0 106,21 143,62 37,41 55,98 55,171 0,59 -8,105 -24,139 -17,34 -40,60 -72,79 -31,19 -65,28 -102,28 -59,0 -107,-20 -143,-62 -37,-41 -55,-100 -55,-177zm73 0c0,58 12,102 36,132 23,29 53,43 89,43 36,0 66,-14 89,-44 24,-29 36,-74 36,-134 0,-56 -12,-99 -36,-128 -24,-30 -53,-44 -89,-44 -36,0 -66,14 -89,43 -24,29 -36,73 -36,132zm406 229l0 -634 72 0 0 634 -72 0zm418 0l0 -634 221 0c39,0 68,2 89,6 29,6 53,15 72,30 20,14 35,35 47,61 12,26 18,55 18,86 0,54 -16,100 -48,137 -31,37 -89,56 -171,56l-150 0 0 258 -78 0zm78 -333l151 0c50,0 85,-10 106,-30 21,-20 32,-48 32,-85 0,-27 -6,-49 -19,-68 -12,-19 -28,-32 -49,-38 -13,-3 -37,-5 -72,-5l-149 0 0 226zm457 333l0 -459 64 0 0 70c17,-32 32,-54 46,-64 14,-11 29,-16 46,-16 24,0 49,8 74,25l-26 72c-17,-11 -34,-16 -52,-16 -15,0 -30,5 -42,15 -12,10 -21,24 -26,42 -8,28 -12,58 -12,91l0 240 -72 0zm245 -229c0,-85 22,-148 66,-189 36,-34 81,-51 133,-51 58,0 106,21 143,62 36,41 55,98 55,171 0,59 -8,105 -25,139 -16,34 -40,60 -71,79 -31,19 -65,28 -102,28 -59,0 -107,-20 -144,-62 -36,-41 -55,-100 -55,-177zm74 0c0,58 12,102 35,132 24,29 54,43 90,43 36,0 65,-14 89,-44 24,-29 36,-74 36,-134 0,-56 -12,-99 -36,-128 -24,-30 -54,-44 -89,-44 -36,0 -66,14 -90,43 -23,29 -35,73 -35,132zm394 267l69 11c3,23 11,40 25,51 17,15 42,22 73,22 33,0 59,-7 77,-22 18,-14 30,-34 36,-60 4,-16 6,-49 6,-100 -32,40 -71,60 -118,60 -58,0 -103,-22 -135,-68 -32,-45 -48,-100 -48,-164 0,-43 8,-84 22,-121 15,-37 36,-65 64,-86 27,-20 60,-30 98,-30 50,0 91,22 123,66l0 -56 66 0 0 397c0,71 -6,122 -20,152 -13,30 -35,53 -64,70 -29,18 -64,26 -107,26 -50,0 -91,-12 -122,-37 -31,-24 -46,-61 -45,-111zm59 -275c0,60 11,104 33,131 22,28 50,42 83,42 33,0 60,-14 83,-41 22,-28 33,-71 33,-130 0,-56 -11,-98 -34,-127 -23,-28 -51,-42 -83,-42 -32,0 -59,14 -82,42 -22,28 -33,69 -33,125zm407 237l0 -459 65 0 0 70c16,-32 31,-54 45,-64 14,-11 30,-16 46,-16 25,0 49,8 74,25l-25 72c-18,-11 -35,-16 -53,-16 -15,0 -29,5 -42,15 -12,10 -21,24 -26,42 -8,28 -12,58 -12,91l0 240 -72 0zm549 -57c-26,24 -52,42 -77,52 -24,10 -51,15 -79,15 -46,0 -82,-12 -107,-37 -25,-24 -38,-56 -38,-94 0,-22 5,-43 14,-61 10,-19 22,-34 37,-45 16,-11 33,-20 52,-26 14,-4 36,-7 64,-11 58,-8 101,-17 128,-27 0,-11 1,-17 1,-20 0,-32 -7,-54 -21,-67 -18,-18 -46,-26 -82,-26 -34,0 -59,6 -75,19 -16,13 -28,36 -35,68l-71 -10c7,-33 17,-59 32,-79 15,-20 36,-36 64,-47 27,-11 59,-16 96,-16 36,0 66,5 88,14 23,9 40,21 50,35 11,14 18,31 23,53 2,13 3,37 3,71l0 104c0,72 2,118 5,137 3,19 9,38 17,55l-75 0c-7,-16 -12,-35 -14,-57zm-5 -173c-27,12 -66,21 -118,29 -30,5 -51,10 -63,16 -12,6 -21,14 -28,25 -7,11 -10,23 -10,37 0,20 7,38 22,51 14,14 35,21 63,21 28,0 53,-6 74,-20 22,-13 38,-30 48,-53 7,-18 11,-43 11,-78l1 -28zm182 230l0 -459 65 0 0 65c13,-23 31,-41 53,-54 22,-14 47,-21 75,-21 31,0 57,7 77,21 20,14 34,34 42,59 34,-53 78,-80 132,-80 42,0 74,13 97,38 22,25 34,64 34,116l0 315 -72 0 0 -289c0,-31 -2,-53 -7,-67 -5,-14 -13,-25 -25,-33 -13,-9 -27,-13 -44,-13 -29,0 -54,11 -74,33 -20,21 -29,55 -29,103l0 266 -72 0 0 -298c0,-34 -6,-60 -18,-78 -11,-17 -31,-26 -57,-26 -20,0 -39,6 -56,18 -17,11 -30,28 -37,50 -8,22 -12,54 -12,96l0 238 -72 0zm-14583 968l-67 0 0 -635 72 0 0 227c30,-41 69,-62 116,-62 26,0 50,6 74,17 23,12 42,28 57,48 15,21 27,46 35,75 9,29 13,60 13,93 0,78 -18,139 -54,182 -36,43 -79,64 -129,64 -50,0 -89,-22 -117,-67l0 58zm-1 -234c0,55 7,95 21,120 22,40 53,60 91,60 32,0 59,-15 81,-45 23,-29 35,-73 35,-132 0,-60 -11,-104 -33,-132 -22,-29 -49,-43 -80,-43 -31,0 -58,15 -81,44 -23,30 -34,72 -34,128zm385 410l-8 -72c16,5 29,7 41,7 16,0 29,-3 39,-9 9,-5 17,-13 23,-24 5,-8 12,-27 22,-58 1,-4 3,-11 6,-19l-160 -461 76 0 89 265c11,34 22,69 31,106 8,-34 18,-69 29,-103l90 -268 72 0 -160 468c-17,50 -31,84 -40,103 -13,26 -28,45 -44,57 -17,12 -37,18 -59,18 -14,0 -30,-4 -47,-10zm644 -176l0 -635 219 0c45,0 80,7 108,20 26,13 48,32 63,59 15,27 23,54 23,84 0,27 -7,52 -20,76 -14,24 -34,43 -62,58 36,11 63,31 82,58 19,27 28,59 28,96 0,30 -6,57 -17,83 -12,25 -26,45 -43,59 -17,13 -38,24 -64,31 -26,7 -57,11 -94,11l-223 0zm77 -368l127 0c34,0 59,-2 73,-7 20,-7 35,-17 45,-32 10,-15 15,-33 15,-56 0,-21 -5,-39 -14,-55 -9,-16 -23,-27 -40,-33 -17,-6 -47,-9 -89,-9l-117 0 0 192zm0 293l146 0c25,0 42,-1 53,-3 17,-3 32,-9 44,-17 12,-8 22,-20 30,-36 8,-15 11,-33 11,-53 0,-24 -5,-44 -16,-62 -12,-18 -27,-30 -47,-37 -20,-7 -48,-11 -85,-11l-136 0 0 219zm738 17c-27,25 -52,42 -77,52 -25,10 -51,15 -79,15 -47,0 -82,-12 -108,-37 -25,-24 -37,-55 -37,-94 0,-22 5,-43 14,-61 10,-19 22,-34 37,-45 16,-11 33,-20 52,-25 14,-4 35,-8 64,-12 58,-7 101,-16 128,-27 0,-10 0,-17 0,-20 0,-32 -6,-54 -20,-67 -18,-17 -46,-26 -82,-26 -34,0 -59,6 -75,19 -16,13 -28,36 -36,69l-70 -11c7,-33 17,-59 32,-79 14,-20 36,-36 63,-47 28,-10 60,-16 97,-16 36,0 65,5 88,14 23,9 39,21 50,35 11,14 18,32 22,53 3,13 4,37 4,72l0 103c0,72 1,118 4,137 3,19 9,38 18,56l-75 0c-7,-17 -12,-36 -14,-58zm-6 -173c-26,12 -65,22 -117,30 -30,4 -51,9 -63,15 -12,6 -22,14 -28,25 -7,11 -10,23 -10,37 0,21 7,38 21,52 15,13 36,20 64,20 28,0 52,-6 74,-19 21,-13 37,-31 47,-54 8,-17 12,-43 12,-77l0 -29zm180 407l-8 -72c16,5 29,7 41,7 16,0 29,-3 38,-9 10,-5 18,-13 24,-24 4,-8 12,-27 22,-58 1,-4 3,-11 6,-19l-161 -461 77 0 89 265c11,34 21,69 30,106 9,-34 18,-69 30,-103l90 -268 72 0 -160 468c-17,50 -31,84 -41,103 -12,26 -27,45 -44,57 -16,12 -36,18 -59,18 -14,0 -29,-4 -46,-10zm700 -325l74 10c-11,47 -33,84 -64,110 -32,25 -72,38 -121,38 -62,0 -111,-20 -147,-62 -36,-41 -54,-99 -54,-173 0,-77 18,-137 54,-180 37,-43 84,-64 143,-64 56,0 102,21 138,63 36,42 54,100 54,176 0,5 0,12 -1,21l-315 0c3,50 16,89 39,115 24,27 53,41 89,41 26,0 48,-8 67,-23 18,-15 33,-39 44,-72zm-235 -125l236 0c-3,-39 -12,-68 -27,-87 -23,-30 -53,-45 -89,-45 -33,0 -60,12 -83,36 -22,24 -34,56 -37,96zm399 274l0 -460 65 0 0 70c16,-32 31,-54 45,-64 14,-11 30,-16 46,-16 25,0 49,8 74,25l-25 72c-18,-11 -35,-16 -52,-16 -16,0 -30,5 -43,15 -12,10 -21,25 -26,43 -8,27 -12,58 -12,90l0 241 -72 0zm508 0l0 -635 202 0c45,0 80,3 104,9 33,9 62,24 85,46 31,28 54,64 69,108 16,44 23,95 23,151 0,48 -5,91 -15,128 -10,37 -24,68 -40,93 -16,24 -34,43 -53,57 -19,14 -43,25 -70,32 -27,7 -58,11 -94,11l-211 0zm78 -75l124 0c39,0 69,-4 91,-11 22,-8 39,-19 52,-33 19,-20 33,-47 43,-81 10,-33 15,-74 15,-122 0,-67 -10,-118 -30,-153 -20,-36 -44,-60 -73,-72 -20,-9 -54,-13 -100,-13l-122 0 0 485zm503 -471l0 -89 71 0 0 89 -71 0zm0 546l0 -460 71 0 0 460 -71 0zm458 -58c-27,25 -53,42 -77,52 -25,10 -51,15 -80,15 -46,0 -82,-12 -107,-37 -25,-24 -38,-55 -38,-94 0,-22 5,-43 15,-61 9,-19 21,-34 37,-45 15,-11 32,-20 51,-25 15,-4 36,-8 64,-12 58,-7 101,-16 128,-27 1,-10 1,-17 1,-20 0,-32 -7,-54 -21,-67 -18,-17 -45,-26 -81,-26 -34,0 -59,6 -75,19 -17,13 -28,36 -36,69l-70 -11c6,-33 17,-59 31,-79 15,-20 36,-36 64,-47 28,-10 60,-16 96,-16 36,0 66,5 89,14 22,9 39,21 49,35 11,14 19,32 23,53 2,13 3,37 3,72l0 103c0,72 2,118 5,137 3,19 9,38 17,56l-75 0c-7,-17 -11,-36 -13,-58zm-6 -173c-26,12 -65,22 -118,30 -29,4 -50,9 -62,15 -13,6 -22,14 -29,25 -6,11 -10,23 -10,37 0,21 7,38 22,52 14,13 36,20 64,20 27,0 52,-6 73,-19 22,-13 38,-31 48,-54 8,-17 11,-43 11,-77l1 -29zm170 269l69 10c3,24 11,41 24,51 18,15 42,22 73,22 33,0 59,-7 77,-22 18,-14 31,-34 37,-60 4,-16 5,-49 5,-100 -31,41 -70,61 -117,61 -58,0 -103,-23 -135,-69 -32,-45 -48,-100 -48,-163 0,-44 7,-85 22,-122 14,-37 36,-65 63,-86 28,-20 61,-30 98,-30 50,0 91,22 124,67l0 -57 66 0 0 397c0,71 -7,122 -20,152 -14,30 -35,53 -64,71 -29,17 -65,26 -107,26 -51,0 -91,-13 -122,-37 -32,-25 -47,-62 -45,-111zm58 -276c0,60 11,104 33,131 23,28 50,42 83,42 33,0 61,-14 83,-41 23,-28 34,-71 34,-130 0,-56 -12,-98 -35,-126 -23,-29 -50,-43 -83,-43 -32,0 -59,14 -81,42 -23,28 -34,70 -34,125zm409 238l0 -460 64 0 0 65c31,-50 76,-75 134,-75 26,0 49,5 71,15 21,10 37,23 48,39 10,16 18,36 22,58 3,14 4,39 4,75l0 283 -72 0 0 -280c0,-31 -2,-55 -8,-71 -6,-15 -16,-28 -30,-37 -14,-10 -31,-14 -50,-14 -30,0 -56,10 -78,31 -23,21 -34,61 -34,120l0 251 -71 0zm426 -230c0,-85 22,-148 66,-189 36,-34 81,-51 133,-51 58,0 106,21 143,62 36,41 55,99 55,171 0,59 -8,106 -25,139 -16,34 -40,61 -71,79 -31,19 -65,28 -102,28 -59,0 -107,-20 -144,-61 -36,-42 -55,-101 -55,-178zm74 0c0,59 12,103 35,132 24,29 54,44 90,44 36,0 65,-15 89,-44 24,-30 36,-75 36,-135 0,-56 -12,-99 -36,-128 -24,-30 -54,-44 -89,-44 -36,0 -66,14 -90,43 -23,29 -35,73 -35,132zm379 92l71 -12c4,31 15,54 33,71 18,16 44,25 76,25 33,0 58,-8 74,-22 16,-15 24,-32 24,-51 0,-18 -7,-32 -22,-42 -10,-7 -34,-16 -73,-26 -53,-15 -89,-27 -109,-38 -21,-10 -36,-25 -46,-43 -11,-19 -16,-39 -16,-62 0,-20 4,-39 13,-57 8,-17 20,-31 35,-43 11,-9 26,-16 46,-22 19,-7 39,-10 61,-10 34,0 63,5 88,16 25,10 43,24 55,42 12,18 20,42 25,72l-70 10c-3,-24 -13,-43 -28,-56 -15,-13 -37,-20 -64,-20 -33,0 -57,6 -71,18 -14,12 -21,25 -21,41 0,10 3,19 9,27 6,9 15,16 27,21 8,3 29,10 64,20 50,15 86,27 106,36 20,9 36,23 47,41 12,18 17,40 17,66 0,26 -7,51 -21,73 -14,23 -34,41 -60,54 -26,12 -56,18 -89,18 -55,0 -97,-12 -126,-37 -29,-24 -47,-61 -55,-110zm592 68l10 69c-20,4 -38,7 -54,7 -26,0 -46,-5 -61,-14 -14,-9 -24,-20 -30,-35 -6,-15 -9,-45 -9,-92l0 -265 -53 0 0 -60 53 0 0 -114 72 -46 0 160 72 0 0 60 -72 0 0 269c0,23 1,37 4,43 2,7 6,12 12,16 6,3 14,5 25,5 8,0 18,-1 31,-3zm71 -476l0 -89 72 0 0 89 -72 0zm0 546l0 -460 72 0 0 460 -72 0zm458 -169l70 11c-8,52 -27,93 -59,123 -32,30 -71,44 -117,44 -58,0 -104,-20 -139,-61 -36,-41 -53,-100 -53,-176 0,-50 7,-93 23,-130 15,-38 38,-65 69,-84 31,-18 64,-28 101,-28 45,0 83,13 112,38 29,25 48,61 56,107l-69 12c-7,-31 -18,-54 -35,-70 -17,-15 -38,-23 -62,-23 -36,0 -65,14 -88,42 -22,28 -34,73 -34,133 0,62 11,107 33,135 22,28 50,42 85,42 29,0 52,-10 71,-28 19,-19 31,-48 36,-87zm103 31l70 -12c4,31 16,54 34,71 18,16 44,25 76,25 33,0 58,-8 74,-22 16,-15 24,-32 24,-51 0,-18 -7,-32 -22,-42 -10,-7 -34,-16 -73,-26 -53,-15 -89,-27 -109,-38 -21,-10 -36,-25 -46,-43 -11,-19 -16,-39 -16,-62 0,-20 4,-39 13,-57 8,-17 20,-31 35,-43 11,-9 26,-16 45,-22 20,-7 40,-10 62,-10 33,0 63,5 88,16 25,10 43,24 55,42 12,18 20,42 25,72l-70 10c-3,-24 -13,-43 -28,-56 -15,-13 -37,-20 -65,-20 -32,0 -56,6 -70,18 -14,12 -21,25 -21,41 0,10 3,19 9,27 6,9 15,16 27,21 7,3 28,10 64,20 50,15 85,27 106,36 20,9 35,23 47,41 11,18 17,40 17,66 0,26 -7,51 -21,73 -14,23 -34,41 -60,54 -27,12 -56,18 -89,18 -55,0 -97,-12 -126,-37 -29,-24 -47,-61 -55,-110zm-7221 1105l0 -634 116 0 138 449c13,41 22,73 28,93 7,-23 17,-57 31,-101l141 -441 103 0 0 634 -74 0 0 -531 -170 531 -70 0 -169 -540 0 540 -74 0zm961 -149l75 11c-12,46 -34,83 -65,109 -32,26 -72,39 -121,39 -62,0 -111,-21 -147,-62 -36,-42 -54,-100 -54,-174 0,-77 18,-137 55,-180 36,-42 84,-64 142,-64 56,0 102,21 138,63 36,42 54,101 54,176 0,5 0,12 0,21l-316 0c3,50 16,89 40,116 23,26 53,40 88,40 26,0 49,-8 67,-23 19,-15 33,-39 44,-72zm-235 -125l236 0c-3,-39 -12,-67 -27,-87 -23,-30 -52,-45 -89,-45 -33,0 -60,12 -83,36 -22,24 -34,56 -37,96zm674 274l0 -59c-27,46 -67,69 -119,69 -33,0 -65,-10 -93,-31 -28,-20 -50,-48 -65,-84 -16,-36 -24,-78 -24,-125 0,-45 7,-87 21,-124 15,-37 36,-66 64,-86 28,-20 59,-30 94,-30 26,0 48,6 68,18 20,12 36,27 49,46l0 -228 71 0 0 634 -66 0zm-227 -229c0,58 11,102 34,131 23,29 50,44 81,44 32,0 58,-14 80,-42 22,-28 33,-70 33,-127 0,-63 -11,-109 -33,-138 -23,-29 -50,-44 -83,-44 -32,0 -59,14 -80,42 -22,28 -32,73 -32,134zm426 229l0 -400 -64 0 0 -60 64 0 0 -44c0,-46 9,-81 27,-105 18,-24 47,-36 86,-36 26,0 51,3 73,10l-11 65c-14,-2 -27,-3 -39,-3 -25,0 -42,5 -51,16 -9,10 -13,33 -13,67l0 30 82 0 0 60 -82 0 0 400 -72 0zm207 -546l0 -88 72 0 0 88 -72 0zm0 546l0 -460 72 0 0 460 -72 0zm471 -149l74 11c-11,46 -33,83 -65,109 -31,26 -71,39 -121,39 -61,0 -110,-21 -146,-62 -37,-42 -55,-100 -55,-174 0,-77 19,-137 55,-180 37,-42 84,-64 143,-64 56,0 102,21 138,63 36,42 54,101 54,176 0,5 -1,12 -1,21l-315 0c2,50 16,89 39,116 24,26 53,40 88,40 27,0 49,-8 68,-23 18,-15 33,-39 44,-72zm-235 -125l236 0c-3,-39 -13,-67 -27,-87 -23,-30 -53,-45 -89,-45 -33,0 -61,12 -83,36 -22,24 -35,56 -37,96zm398 274l0 -634 72 0 0 634 -72 0zm456 0l0 -59c-26,46 -66,69 -118,69 -34,0 -65,-10 -93,-31 -28,-20 -50,-48 -66,-84 -15,-36 -23,-78 -23,-125 0,-45 7,-87 21,-124 14,-37 35,-66 64,-86 28,-20 59,-30 94,-30 25,0 48,6 68,18 20,12 36,27 49,46l0 -228 71 0 0 634 -67 0zm-226 -229c0,58 11,102 34,131 23,29 50,44 81,44 31,0 58,-14 80,-42 22,-28 33,-70 33,-127 0,-63 -11,-109 -34,-138 -22,-29 -49,-44 -82,-44 -32,0 -59,14 -80,42 -22,28 -32,73 -32,134zm426 229l0 -89 81 0 0 89c0,32 -5,59 -16,79 -10,20 -27,36 -51,47l-19 -34c15,-7 26,-18 33,-32 7,-14 11,-34 12,-60l-40 0zm215 0l0 -634 116 0 138 449c13,41 22,73 28,93 6,-23 17,-57 31,-101l141 -441 103 0 0 634 -74 0 0 -531 -171 531 -69 0 -169 -540 0 540 -74 0zm617 0l224 -634 85 0 238 634 -88 0 -67 -192 -246 0 -64 192 -82 0zm168 -261l199 0 -61 -175c-18,-54 -32,-98 -41,-133 -8,42 -19,82 -33,122l-64 186zm585 70l0 -78 222 0 0 78 -222 0zm918 -443l78 0 0 366c0,64 -7,114 -20,152 -13,37 -37,68 -72,91 -35,24 -80,35 -136,35 -55,0 -99,-10 -134,-30 -35,-21 -60,-50 -75,-89 -14,-39 -22,-92 -22,-159l0 -366 78 0 0 366c0,55 4,96 14,122 9,26 25,46 48,60 23,14 51,21 84,21 57,0 97,-14 121,-42 24,-28 36,-82 36,-161l0 -366zm181 430l73 -7c4,32 12,58 24,79 13,20 32,36 59,49 26,13 56,19 90,19 29,0 55,-5 78,-14 22,-10 39,-23 50,-40 11,-16 17,-35 17,-54 0,-20 -6,-37 -16,-52 -11,-15 -29,-27 -53,-37 -16,-7 -50,-17 -104,-31 -54,-14 -91,-27 -113,-40 -28,-16 -48,-35 -62,-59 -14,-23 -20,-50 -20,-79 0,-32 8,-62 25,-90 16,-28 41,-49 73,-63 32,-15 68,-22 107,-22 43,0 82,8 115,23 33,15 58,37 76,67 18,29 27,62 29,100l-75 6c-4,-40 -17,-70 -40,-91 -23,-20 -57,-31 -102,-31 -47,0 -81,10 -102,28 -21,19 -32,41 -32,68 0,22 7,41 22,56 15,15 54,30 117,45 63,16 106,29 129,41 34,16 59,38 76,64 16,26 24,56 24,90 0,34 -9,65 -27,95 -18,30 -43,53 -76,70 -34,16 -71,24 -113,24 -53,0 -97,-8 -133,-25 -35,-16 -63,-41 -83,-75 -21,-34 -31,-72 -33,-114zm506 204l224 -634 85 0 238 634 -88 0 -68 -192 -246 0 -63 192 -82 0zm168 -261l199 0 -61 -175c-18,-54 -32,-98 -42,-133 -8,42 -18,82 -32,122l-64 186zm-5621 -3115c55,57 114,102 178,135l-82 230c-33,-15 -66,-35 -98,-60 -7,-6 -56,-53 -148,-143 -72,46 -152,69 -240,69 -169,0 -302,-72 -398,-217 -96,-144 -144,-347 -144,-609 0,-261 48,-464 145,-608 96,-146 226,-218 391,-218 164,0 293,72 389,218 96,144 144,347 144,608 0,137 -14,259 -40,363 -20,80 -52,158 -97,232zm-178 -181c28,-49 50,-107 64,-176 14,-69 21,-148 21,-238 0,-184 -28,-322 -84,-413 -56,-91 -130,-137 -220,-137 -91,0 -165,46 -221,137 -56,92 -85,230 -85,414 0,187 29,326 85,419 57,93 128,139 214,139 33,0 63,-8 91,-23 -45,-43 -91,-76 -137,-100l62 -187c73,37 143,92 210,165zm1195 -205l216 96c-33,176 -88,306 -165,391 -77,85 -175,128 -293,128 -147,0 -267,-72 -362,-217 -94,-145 -141,-343 -141,-594 0,-265 47,-472 142,-618 95,-147 220,-221 374,-221 135,0 245,58 329,173 50,69 88,167 113,295l-220 75c-13,-82 -41,-147 -82,-195 -42,-48 -92,-72 -151,-72 -82,0 -148,42 -199,127 -51,85 -77,222 -77,412 0,201 26,345 76,430 50,86 115,129 195,129 60,0 111,-27 153,-82 43,-54 74,-140 92,-257zm776 72l218 -32c13,105 39,182 79,232 39,49 93,73 161,73 71,0 125,-21 161,-65 36,-44 54,-95 54,-154 0,-38 -7,-70 -22,-96 -16,-27 -42,-50 -80,-69 -26,-13 -85,-36 -178,-70 -118,-43 -202,-95 -250,-158 -67,-88 -101,-195 -101,-322 0,-81 16,-158 48,-228 31,-71 77,-125 137,-162 60,-37 131,-56 216,-56 138,0 242,44 312,133 69,89 106,207 109,355l-223 11c-9,-83 -30,-142 -61,-178 -31,-36 -78,-54 -140,-54 -64,0 -114,20 -150,58 -24,25 -35,58 -35,100 0,37 11,70 33,96 28,35 96,71 204,108 108,36 188,75 239,114 52,40 93,94 122,163 29,68 44,153 44,253 0,92 -18,177 -53,257 -35,80 -85,139 -149,178 -64,39 -144,58 -240,58 -139,0 -246,-46 -321,-139 -75,-93 -119,-229 -134,-406zm983 -639l225 0 191 819 188 -819 218 0 -282 1112 -50 201c-19,67 -37,118 -54,154 -16,35 -36,64 -58,86 -22,22 -49,39 -81,51 -31,12 -68,19 -108,19 -40,0 -80,-7 -120,-19l-18 -238c33,9 63,14 90,14 49,0 85,-21 109,-63 24,-42 42,-95 54,-160l-304 -1157zm883 830l212 -47c9,59 27,104 55,135 28,30 66,46 116,46 54,0 96,-15 123,-44 19,-20 28,-48 28,-82 0,-23 -5,-42 -15,-57 -11,-15 -34,-28 -71,-41 -170,-54 -278,-104 -324,-149 -64,-63 -95,-149 -95,-260 0,-101 27,-185 82,-253 55,-69 139,-103 254,-103 109,0 191,26 244,78 53,52 90,128 110,229l-199 54c-8,-45 -25,-80 -49,-104 -24,-25 -58,-36 -102,-36 -56,0 -96,11 -120,33 -17,16 -25,37 -25,62 0,22 7,41 21,56 20,20 86,49 199,86 113,37 191,82 236,136 44,54 66,131 66,228 0,105 -30,197 -91,273 -61,76 -152,114 -272,114 -109,0 -195,-32 -259,-95 -63,-64 -105,-150 -124,-259zm1296 -830l0 242 -144 0 0 468c0,95 1,151 4,166 3,16 9,29 19,39 10,10 21,15 36,15 19,0 48,-9 85,-29l17 237c-49,31 -104,46 -166,46 -38,0 -72,-9 -103,-28 -30,-18 -53,-42 -67,-72 -14,-29 -24,-69 -30,-120 -4,-35 -6,-107 -6,-216l0 -506 -97 0 0 -242 97 0 0 -230 211 -180 0 410 144 0zm610 790l211 51c-27,112 -70,197 -128,256 -58,58 -131,87 -219,87 -139,0 -242,-66 -308,-197 -53,-105 -79,-238 -79,-399 0,-191 34,-342 103,-450 69,-109 157,-163 263,-163 118,0 212,57 281,170 68,114 101,288 98,523l-528 0c1,90 18,161 51,211 32,51 73,76 121,76 33,0 61,-13 83,-39 23,-26 40,-68 51,-126zm13 -309c-2,-89 -18,-157 -48,-203 -30,-46 -66,-69 -109,-69 -46,0 -84,24 -114,73 -30,49 -45,115 -44,199l315 0zm366 -481l194 0 0 157c70,-121 153,-182 249,-182 51,0 96,15 133,46 38,30 69,76 92,138 36,-62 74,-108 114,-138 41,-31 84,-46 130,-46 59,0 108,17 149,52 41,34 71,85 91,152 15,49 22,128 22,238l0 738 -211 0 0 -659c0,-115 -7,-189 -22,-222 -19,-43 -50,-65 -90,-65 -30,0 -58,13 -84,39 -26,26 -45,64 -56,115 -12,50 -18,129 -18,238l0 554 -211 0 0 -632c0,-112 -3,-185 -11,-217 -7,-33 -19,-57 -35,-73 -15,-16 -37,-24 -64,-24 -33,0 -62,13 -88,38 -26,25 -44,62 -56,110 -11,48 -17,127 -17,237l0 561 -211 0 0 -1155zm1310 830l212 -47c9,59 27,104 55,135 28,30 66,46 116,46 54,0 96,-15 123,-44 19,-20 28,-48 28,-82 0,-23 -5,-42 -15,-57 -11,-15 -34,-28 -71,-41 -170,-54 -278,-104 -324,-149 -64,-63 -95,-149 -95,-260 0,-101 27,-185 82,-253 55,-69 139,-103 254,-103 109,0 191,26 244,78 53,52 90,128 110,229l-199 54c-8,-45 -25,-80 -49,-104 -24,-25 -58,-36 -102,-36 -56,0 -96,11 -120,33 -17,16 -25,37 -25,62 0,22 7,41 21,56 20,20 86,49 199,86 113,37 191,82 236,136 44,54 66,131 66,228 0,105 -30,197 -91,273 -61,76 -152,114 -272,114 -109,0 -195,-32 -259,-95 -63,-64 -105,-150 -124,-259zm731 -793l0 -290 -100 0 0 -59 268 0 0 59 -99 0 0 290 -69 0zm212 0l0 -349 102 0 61 238 60 -238 102 0 0 349 -63 0 0 -275 -67 275 -66 0 -66 -275 0 275 -63 0zm5659 -871l0 -291 -100 0 0 -59 268 0 0 59 -99 0 0 291 -69 0zm212 0l0 -350 102 0 61 239 59 -239 103 0 0 350 -63 0 0 -275 -67 275 -66 0 -66 -275 0 275 -63 0zm-3783 -751c656,0 1188,619 1188,1382 0,409 -152,777 -395,1030 139,105 281,203 430,260 -33,80 -65,160 -98,241 -191,-76 -359,-206 -525,-337 -176,120 -381,189 -600,189 -583,0 -1068,-489 -1169,-1133l328 0c90,479 432,835 841,835 120,0 235,-31 339,-87 -103,-69 -208,-129 -322,-167 24,-78 48,-157 72,-235 157,37 308,133 457,245 194,-199 318,-502 318,-841 0,-598 -387,-1084 -864,-1084 -447,0 -814,425 -859,971l-325 0c49,-710 561,-1269 1184,-1269zm2479 298c287,0 536,231 664,570l275 -72c-165,-470 -524,-796 -939,-796 -544,0 -991,559 -1034,1269l283 0c40,-546 361,-971 751,-971zm697 1499c-113,393 -383,670 -697,670 -357,0 -656,-356 -735,-835l-286 0c88,644 512,1133 1021,1133 441,0 818,-368 968,-886l-271 -82z"/>
 </g>
</svg>
