<?xml version="1.0" encoding="UTF-8"?>
<!DOCTYPE svg PUBLIC "-//W3C//DTD SVG 1.1//EN" "http://www.w3.org/Graphics/SVG/1.1/DTD/svg11.dtd">
<!-- Creator: CorelDRAW X7 -->
<svg xmlns="http://www.w3.org/2000/svg" xml:space="preserve" width="121.079mm" height="90.9379mm" version="1.1" style="shape-rendering:geometricPrecision; text-rendering:geometricPrecision; image-rendering:optimizeQuality; fill-rule:evenodd; clip-rule:evenodd"
viewBox="0 0 10738 8065"
 xmlns:xlink="http://www.w3.org/1999/xlink">
 <defs>
  <style type="text/css">
   <![CDATA[
    .fil0 {fill:#150162}
   ]]>
  </style>
 </defs>
 <g id="Camada_x0020_1">
  <metadata id="CorelCorpID_0Corel-Layer"/>
  <path class="fil0" d="M0 2086l0 -681c0,-278 227,-506 505,-506l95 0 0 766c-162,85 -283,238 -323,421l-277 0zm1977 2357l-624 0c-258,0 -469,-212 -469,-470l0 -430 -379 0c-278,0 -505,-227 -505,-505l0 -682 277 0c61,281 311,491 611,491 299,0 549,-210 611,-491l478 0 0 556c-281,62 -491,312 -491,612 0,299 210,549 491,611l0 308zm1388 -900l-25 0 0 430c0,258 -211,470 -470,470l-623 0 0 -308c280,-62 490,-312 490,-611 0,-300 -210,-550 -490,-612l0 -556 478 0c61,281 312,491 611,491 10,0 19,0 29,-1l0 697zm859 -1187l0 682c0,278 -228,505 -506,505l-83 0 0 -772c157,-85 273,-236 312,-415l277 0zm-1977 -2356l623 0c259,0 470,211 470,469l0 430 378 0c278,0 506,228 506,506l0 681 -277 0c-62,-280 -312,-490 -611,-490 -299,0 -550,210 -611,490l-478 0 0 -556c280,-62 490,-312 490,-611 0,-299 -210,-549 -490,-611l0 -308zm-894 0l624 0 0 308c-281,62 -491,312 -491,611 0,299 210,549 491,611l0 556 -478 0c-62,-280 -312,-490 -611,-490 -6,0 -12,0 -18,0l0 -697 14 0 0 -430c0,-258 211,-469 469,-469zm-1350 5991c34,11 64,19 91,24 28,5 54,7 79,7 18,0 32,-3 42,-9 11,-7 16,-15 16,-25 0,-15 -20,-37 -61,-67 -7,-5 -12,-9 -16,-12 0,0 -1,0 -1,0 -92,-68 -137,-127 -137,-175 0,-45 20,-81 60,-107 40,-26 96,-38 168,-38 20,0 42,1 66,3 24,3 52,7 84,13l10 121c-31,-7 -55,-13 -75,-16 -19,-3 -35,-5 -48,-5 -25,0 -43,4 -55,10 -12,6 -18,15 -18,28 0,14 23,37 67,69 8,6 14,11 19,14 48,35 81,65 99,89 17,24 26,50 26,77 0,49 -20,87 -60,112 -40,26 -100,38 -178,38 -23,0 -49,-1 -76,-4 -28,-3 -57,-7 -89,-13l-13 -134zm653 -126c0,52 13,91 38,116 25,26 63,39 114,39 48,0 85,-14 112,-43 26,-28 39,-68 39,-120 0,-48 -13,-84 -38,-109 -26,-25 -64,-38 -113,-38 -48,0 -85,14 -112,41 -27,27 -40,65 -40,114zm144 278c-104,0 -184,-23 -241,-70 -57,-47 -86,-113 -86,-197 0,-90 30,-161 89,-212 59,-52 141,-77 245,-77 108,0 191,23 248,69 58,46 87,112 87,198 0,91 -30,162 -90,213 -60,51 -144,76 -252,76zm930 -417c-22,-7 -45,-12 -68,-16 -23,-4 -45,-5 -67,-5 -60,0 -107,15 -140,44 -34,30 -50,72 -50,125 0,50 15,87 44,110 30,24 75,36 137,36 22,0 44,-1 66,-4 23,-3 45,-7 69,-13l-19 125c-25,5 -51,9 -77,12 -27,3 -54,4 -81,4 -104,0 -184,-23 -239,-68 -55,-46 -82,-112 -82,-199 0,-92 29,-163 89,-214 59,-51 142,-76 249,-76 27,0 54,1 81,4 27,3 54,7 82,13l6 122zm264 406l-181 0c7,-67 14,-146 19,-237 5,-90 8,-189 10,-297l182 0c-2,13 -4,28 -5,43 -1,16 -3,39 -5,68l-15 250c-1,23 -2,49 -3,78 0,29 -1,60 -2,95zm99 0c7,-66 14,-143 18,-232 5,-89 8,-190 10,-302l455 0 -7 124c-23,-1 -43,-2 -60,-3 -18,0 -30,-1 -36,-1l-179 1c-3,20 -4,36 -4,45 -1,10 -1,20 -1,28l0 10 147 0c19,0 36,0 51,-1 15,0 29,-1 42,-2l-7 125c-9,0 -20,-1 -30,-1 -11,-1 -27,-1 -49,-1l-39 0 -122 0c-2,11 -3,22 -4,33 -1,10 -1,21 -1,32 0,6 0,11 0,14 0,3 0,6 0,8 17,2 34,3 54,4 19,1 42,1 69,1 29,0 57,0 84,-1 26,-1 51,-3 74,-5l-7 124 -458 0zm727 -123l18 0c38,0 65,-2 83,-6 18,-4 34,-10 47,-20 20,-13 36,-31 46,-54 11,-22 16,-48 16,-79 0,-44 -9,-77 -26,-97 -17,-21 -44,-31 -81,-31l-91 0 -10 193c0,8 -1,21 -1,37 -1,17 -1,36 -1,57zm-188 123c8,-67 15,-146 20,-237 5,-90 8,-189 10,-297l274 0c54,0 94,3 117,8 24,6 45,15 63,28 31,22 55,51 71,86 16,36 24,77 24,123 0,94 -28,166 -83,215 -56,49 -137,74 -243,74l-253 0zm846 -469c3,-6 6,-14 11,-24 4,-9 10,-23 17,-41l225 1c2,9 3,19 6,28 2,9 5,19 8,28l166 477 -186 0c-1,-7 -2,-14 -3,-21 -2,-8 -4,-16 -6,-26l-31 -121 -203 0 -47 107c-4,10 -8,20 -11,30 -4,10 -8,21 -11,31l-187 0 252 -469zm129 10l-76 170 123 0 -47 -170zm497 336l18 0c37,0 65,-2 83,-6 18,-4 33,-10 47,-20 20,-13 35,-31 46,-54 10,-22 15,-48 15,-79 0,-44 -8,-77 -26,-97 -17,-21 -44,-31 -81,-31l-91 0 -9 193c-1,8 -1,21 -2,37 0,17 0,36 0,57zm-188 123c8,-67 14,-146 19,-237 5,-90 8,-189 10,-297l274 0c55,0 94,3 118,8 24,6 45,15 63,28 31,22 54,51 70,86 16,36 24,77 24,123 0,94 -27,166 -83,215 -55,49 -136,74 -242,74l-253 0zm666 0c7,-66 14,-143 18,-232 5,-89 8,-190 10,-302l455 0 -7 124c-23,-1 -43,-2 -60,-3 -18,0 -30,-1 -36,-1l-179 1c-3,20 -4,36 -4,45 -1,10 -1,20 -1,28l0 10 146 0c20,0 37,0 52,-1 15,0 29,-1 42,-2l-7 125c-9,0 -20,-1 -30,-1 -11,-1 -27,-1 -49,-1l-39 0 -122 0c-2,11 -3,22 -4,33 -1,10 -1,21 -1,32 0,6 0,11 0,14 0,3 0,6 0,8 17,2 34,3 54,4 19,1 42,1 69,1 29,0 57,0 83,-1 27,-1 52,-3 75,-5l-7 124 -458 0zm1360 -323l38 0c33,0 56,-5 71,-14 14,-9 21,-24 21,-44 0,-19 -5,-33 -16,-40 -11,-8 -30,-12 -58,-12l-49 0c-1,3 -1,10 -2,21 -1,12 -1,22 -2,30l-3 59zm-9 221l66 0c30,0 53,-5 67,-15 15,-11 22,-28 22,-50 0,-20 -6,-35 -19,-45 -12,-10 -31,-15 -55,-15l-78 0 -2 44c0,5 -1,12 -1,19 0,7 0,19 0,35l0 27zm130 -432c63,0 109,10 138,29 29,19 43,50 43,92 0,36 -11,66 -35,89 -23,24 -56,39 -99,45 48,4 84,17 107,38 24,21 36,51 36,89 0,49 -18,87 -53,113 -36,26 -87,39 -153,39l-298 0c9,-70 15,-150 21,-240 5,-90 8,-188 9,-294l284 0zm547 0c37,0 65,1 83,4 18,2 33,6 47,12 22,9 40,23 52,44 13,21 20,44 20,70 0,39 -9,72 -26,98 -17,27 -42,46 -75,58l99 248 -186 0 -105 -306 4 0c41,0 71,-6 91,-17 20,-10 30,-27 30,-49 0,-19 -8,-33 -23,-42 -15,-10 -37,-15 -66,-15 -8,0 -15,0 -23,1 -8,1 -16,2 -24,3l-14 252c-1,22 -2,48 -3,77 -1,29 -2,61 -3,96l-180 0c8,-67 14,-146 19,-237 5,-90 8,-189 10,-297l273 0zm422 65c3,-6 7,-14 11,-24 4,-9 10,-23 17,-41l225 1c2,9 4,19 6,28 2,9 5,19 8,28l166 477 -186 0c0,-7 -2,-14 -3,-21 -1,-8 -4,-16 -6,-26l-31 -121 -202 0 -47 107c-5,10 -9,20 -12,30 -4,10 -8,21 -11,31l-187 0 252 -469zm129 10l-75 170 122 0 -47 -170zm296 318c34,11 64,19 92,24 27,5 53,7 79,7 17,0 31,-3 42,-9 10,-7 15,-15 15,-25 0,-15 -20,-37 -61,-67 -7,-5 -12,-9 -15,-12 -1,0 -1,0 -2,0 -91,-68 -137,-127 -137,-175 0,-45 20,-81 61,-107 40,-26 96,-38 168,-38 19,0 41,1 66,3 24,3 52,7 83,13l10 121c-30,-7 -55,-13 -74,-16 -19,-3 -35,-5 -49,-5 -24,0 -42,4 -54,10 -12,6 -19,15 -19,28 0,14 23,37 68,69 8,6 14,11 18,14 48,35 81,65 99,89 18,24 26,50 26,77 0,49 -20,87 -60,112 -40,26 -99,38 -178,38 -23,0 -48,-1 -76,-4 -27,-3 -57,-7 -89,-13l-13 -134zm657 141l-181 0c7,-67 14,-146 19,-237 5,-90 8,-189 10,-297l182 0c-2,13 -4,28 -5,43 -1,16 -3,39 -5,68l-15 250c-1,23 -2,49 -2,78 -1,29 -2,60 -3,95zm312 -534c-8,54 -14,111 -18,170 -4,59 -6,120 -6,182 0,13 1,32 2,57 0,1 0,2 0,3 16,1 31,2 46,3 14,0 28,0 41,0 24,0 48,0 71,-1 23,-1 50,-2 80,-5l-7 125 -422 0c7,-66 14,-143 18,-232 5,-89 8,-190 10,-302l185 0zm247 534c7,-66 13,-143 18,-232 5,-89 8,-190 10,-302l455 0 -7 124c-23,-1 -43,-2 -61,-3 -17,0 -29,-1 -35,-1l-179 1c-3,20 -4,36 -5,45 0,10 0,20 0,28l0 10 146 0c20,0 37,0 52,-1 15,0 29,-1 42,-2l-7 125c-10,0 -20,-1 -30,-1 -11,-1 -27,-1 -49,-1l-39 0 -123 0c-1,11 -3,22 -3,33 -1,10 -2,21 -2,32 0,6 0,11 1,14 0,3 0,6 0,8 17,2 34,3 53,4 20,1 43,1 70,1 29,0 57,0 83,-1 27,-1 52,-3 75,-5l-7 124 -458 0zm723 0l-182 0c8,-67 14,-146 19,-237 5,-90 9,-189 10,-297l182 0c-2,13 -3,28 -4,43 -2,16 -4,39 -5,68l-15 250c-1,23 -2,49 -3,78 -1,29 -2,60 -2,95zm401 -534c37,0 64,1 82,4 18,2 34,6 48,12 22,9 39,23 52,44 13,21 20,44 20,70 0,39 -9,72 -26,98 -17,27 -42,46 -75,58l99 248 -186 0 -106 -306 5 0c40,0 71,-6 90,-17 20,-10 30,-27 30,-49 0,-19 -7,-33 -22,-42 -15,-10 -37,-15 -67,-15 -7,0 -15,0 -22,1 -8,1 -16,2 -24,3l-15 252c-1,22 -2,48 -3,77 -1,29 -1,61 -2,96l-181 0c8,-67 15,-146 20,-237 5,-90 8,-189 10,-297l273 0zm421 65c4,-6 7,-14 12,-24 4,-9 10,-23 17,-41l225 1c1,9 3,19 5,28 3,9 6,19 9,28l165 477 -185 0c-1,-7 -2,-14 -3,-21 -2,-8 -4,-16 -6,-26l-31 -121 -203 0 -47 107c-4,10 -8,20 -12,30 -3,10 -7,21 -10,31l-187 0 251 -469zm130 10l-76 170 122 0 -46 -170zm-10144 1296l18 0c37,0 65,-2 83,-6 17,-4 33,-10 47,-19 20,-14 35,-32 45,-54 11,-23 16,-49 16,-79 0,-45 -9,-77 -26,-98 -17,-21 -44,-31 -81,-31l-91 0 -10 193c0,9 0,21 -1,38 0,16 0,35 0,56zm-188 123c8,-67 14,-146 19,-236 5,-91 8,-190 10,-297l274 0c55,0 94,2 118,8 24,5 44,14 63,27 31,22 54,51 70,86 16,36 24,77 24,124 0,94 -28,165 -83,215 -55,49 -136,73 -242,73l-253 0zm634 0c8,-65 14,-143 19,-232 5,-89 8,-189 9,-301l455 0 -6 123c-23,-1 -43,-2 -61,-2 -17,-1 -29,-1 -35,-1l-180 0c-2,20 -3,36 -4,46 0,10 -1,19 -1,27l0 11 147 0c19,0 36,-1 51,-1 15,-1 29,-2 42,-3l-6 126c-10,-1 -20,-2 -31,-2 -10,0 -26,0 -48,0l-40 0 -122 0c-2,11 -3,21 -4,32 0,11 -1,21 -1,32 0,6 0,11 0,14 0,3 1,6 1,8 16,2 34,4 53,4 19,1 42,2 70,2 29,0 57,-1 83,-2 26,-1 51,-3 74,-5l-6 124 -459 0zm1418 -533c39,0 66,1 83,3 16,3 31,7 44,13 22,10 39,26 52,49 13,23 19,49 19,78 0,57 -18,103 -54,137 -35,35 -83,52 -141,52 -4,0 -9,0 -15,-1 -6,0 -12,-1 -20,-2l-38 -102c33,0 58,-5 75,-16 16,-11 24,-27 24,-49 0,-18 -6,-32 -18,-42 -12,-11 -28,-16 -50,-16 -8,0 -22,1 -41,3l-2 1 -13 252c-1,28 -2,56 -3,85 -1,29 -2,58 -2,88l-181 0c8,-67 14,-146 19,-236 5,-91 8,-190 10,-297l252 0zm374 64c3,-6 7,-14 11,-23 5,-10 11,-24 18,-41l225 0c1,10 3,19 5,28 2,10 5,19 9,28l165 477 -185 0c-1,-6 -2,-13 -4,-21 -1,-8 -3,-16 -6,-26l-30 -120 -203 0 -47 106c-4,10 -8,20 -12,30 -4,11 -7,21 -10,31l-187 0 251 -469zm130 10l-76 170 122 0 -46 -170zm766 -74l-7 123c-24,-3 -48,-4 -71,-6 -23,-1 -46,-1 -69,-1l-19 0 -16 243c-1,17 -1,33 -2,49 0,17 0,34 0,51 0,20 0,35 0,46 0,10 0,19 0,28l-182 0c5,-44 10,-101 15,-172 4,-71 8,-153 11,-245 -35,0 -66,1 -94,2 -28,1 -51,3 -72,5l8 -123 498 0zm162 266c0,52 12,91 38,117 25,25 63,38 114,38 48,0 85,-14 111,-42 27,-29 40,-69 40,-121 0,-48 -13,-84 -39,-109 -25,-25 -63,-37 -112,-37 -48,0 -86,13 -112,40 -27,28 -40,65 -40,114zm144 279c-104,0 -184,-24 -242,-71 -57,-47 -85,-113 -85,-197 0,-90 29,-161 89,-212 59,-51 141,-77 245,-77 108,0 190,23 248,69 58,46 87,113 87,199 0,90 -30,161 -90,212 -60,51 -144,77 -252,77zm607 -545c-8,53 -14,110 -18,169 -4,60 -6,120 -6,182 0,13 1,32 2,57 0,2 0,2 0,3 16,1 31,2 46,3 14,0 28,1 41,1 24,0 48,-1 71,-2 23,-1 50,-2 80,-5l-7 125 -422 0c7,-65 14,-143 18,-232 5,-89 8,-189 10,-301l185 0zm425 266c0,52 12,91 38,117 25,25 63,38 114,38 48,0 85,-14 111,-42 27,-29 40,-69 40,-121 0,-48 -13,-84 -39,-109 -25,-25 -63,-37 -112,-37 -48,0 -86,13 -112,40 -27,28 -40,65 -40,114zm144 279c-104,0 -184,-24 -241,-71 -58,-47 -86,-113 -86,-197 0,-90 29,-161 89,-212 59,-51 141,-77 245,-77 108,0 190,23 248,69 58,46 87,113 87,199 0,90 -30,161 -90,212 -60,51 -144,77 -252,77zm949 -26c-37,8 -74,15 -110,20 -37,4 -73,6 -109,6 -109,0 -193,-22 -252,-67 -58,-45 -87,-109 -87,-193 0,-94 32,-167 97,-220 65,-52 155,-78 272,-78 25,0 52,1 81,4 29,2 62,7 97,12l10 125c-37,-8 -68,-14 -94,-17 -26,-4 -50,-6 -70,-6 -68,0 -120,16 -158,48 -37,33 -56,77 -56,134 0,43 14,76 40,100 28,23 65,35 114,35 10,0 20,-1 30,-2 10,-1 20,-3 31,-6 1,-12 2,-23 3,-34 0,-10 1,-20 1,-30l0 -13 -70 0 6 -117 238 0c-5,48 -8,93 -11,135 -2,42 -3,78 -3,109 0,12 0,22 0,30 0,8 0,17 0,25zm255 14l-181 0c7,-67 14,-146 19,-236 5,-91 8,-190 10,-297l182 0c-2,12 -4,27 -5,43 -1,16 -3,38 -5,67l-15 250c-1,23 -2,49 -2,78 -1,29 -2,61 -3,95zm244 -469c3,-6 7,-14 11,-23 5,-10 10,-24 18,-41l225 0c1,10 3,19 5,28 2,10 5,19 8,28l166 477 -185 0c-1,-6 -2,-13 -4,-21 -1,-8 -3,-16 -6,-26l-31 -120 -202 0 -47 106c-4,10 -8,20 -12,30 -4,11 -7,21 -10,31l-187 0 251 -469zm130 10l-76 170 122 0 -46 -170zm1410 54c-23,-8 -45,-13 -68,-17 -23,-3 -46,-5 -67,-5 -60,0 -107,15 -140,45 -34,30 -50,71 -50,124 0,50 14,87 44,111 29,23 75,35 137,35 22,0 44,-1 66,-4 22,-3 45,-7 69,-13l-20 125c-25,5 -50,10 -77,12 -26,3 -53,4 -80,4 -105,0 -184,-22 -239,-68 -55,-45 -82,-112 -82,-199 0,-91 29,-163 88,-214 59,-50 143,-76 250,-76 27,0 54,2 81,4 27,3 54,7 81,13l7 123zm262 -128c-7,53 -13,110 -17,169 -4,60 -6,120 -6,182 0,13 0,32 1,57 0,2 1,2 1,3 16,1 31,2 45,3 14,0 28,1 42,1 24,0 47,-1 70,-2 24,-1 50,-2 80,-5l-7 125 -422 0c8,-65 14,-143 19,-232 4,-89 8,-189 9,-301l185 0zm400 533l-182 0c8,-67 14,-146 19,-236 5,-91 8,-190 10,-297l182 0c-2,12 -3,27 -5,43 -1,16 -3,38 -5,67l-14 250c-2,23 -3,49 -3,78 -1,29 -2,61 -2,95zm65 -723l-131 146 -59 0 82 -146 108 0zm450 312l0 -2c2,-32 2,-56 2,-71 0,-6 0,-14 0,-25 -1,-11 -1,-19 -1,-24l160 0c-3,24 -6,45 -7,62 -2,18 -3,34 -4,49l-16 304c-1,11 -1,21 -2,30 0,10 0,19 0,29 0,6 0,15 0,28 1,13 1,24 1,31l-223 0c-22,-49 -44,-96 -65,-139 -1,-4 -2,-6 -3,-7l-115 -232 -10 213c-1,18 -2,52 -3,102 -1,27 -1,48 -2,63l-160 0c5,-40 10,-96 15,-168 5,-72 11,-194 18,-365l217 0 190 381 8 -259zm386 411l-182 0c8,-67 14,-146 19,-236 5,-91 8,-190 10,-297l182 0c-2,12 -3,27 -5,43 -1,16 -3,38 -5,67l-14 250c-2,23 -3,49 -3,78 -1,29 -2,61 -2,95zm572 -405c-23,-8 -46,-13 -69,-17 -22,-3 -45,-5 -67,-5 -60,0 -106,15 -139,45 -34,30 -51,71 -51,124 0,50 15,87 45,111 29,23 75,35 137,35 22,0 44,-1 66,-4 22,-3 45,-7 69,-13l-20 125c-25,5 -51,10 -77,12 -26,3 -53,4 -80,4 -105,0 -185,-22 -239,-68 -55,-45 -83,-112 -83,-199 0,-91 30,-163 89,-214 59,-50 143,-76 250,-76 27,0 53,2 81,4 26,3 54,7 81,13l7 123zm275 -64c4,-6 7,-14 12,-23 4,-10 10,-24 17,-41l225 0c2,10 3,19 6,28 2,10 5,19 8,28l166 477 -186 0c-1,-6 -2,-13 -3,-21 -2,-8 -4,-16 -6,-26l-31 -120 -203 0 -47 106c-4,10 -8,20 -12,30 -3,11 -7,21 -10,31l-187 0 251 -469zm130 10l-76 170 122 0 -46 -170zm-10056 886c1,7 2,15 4,24 1,8 3,18 5,30l60 289 91 -272c6,-14 10,-28 13,-39 4,-11 7,-22 10,-32l241 0c-1,28 -3,59 -4,95 0,7 -1,13 -1,15l-11 305c0,3 0,8 0,15 -1,7 -1,13 -1,18 0,11 0,24 1,39 0,14 1,30 2,47l-167 0c1,-14 3,-29 5,-45 1,-15 2,-31 3,-47l10 -186c1,-4 1,-21 2,-50 1,-30 2,-56 2,-79l-123 342c-5,16 -9,28 -12,37 -3,10 -6,19 -8,28l-139 0c-1,-8 -2,-17 -4,-27 -2,-9 -4,-20 -6,-31l-78 -346 -23 261c-2,16 -3,35 -5,57 -1,23 -3,51 -4,86l-149 0c10,-66 20,-144 28,-234 9,-91 16,-191 21,-300l237 0zm476 534c7,-66 13,-143 18,-233 5,-89 8,-189 9,-301l455 0 -6 123c-23,-1 -43,-1 -61,-2 -17,-1 -29,-1 -35,-1l-180 0c-2,21 -3,36 -4,46 0,10 -1,19 -1,28l0 10 147 0c19,0 37,0 52,-1 15,-1 28,-1 41,-2l-6 125c-10,-1 -20,-1 -30,-2 -11,0 -27,0 -49,0l-39 0 -123 0c-1,11 -3,22 -4,32 0,11 -1,21 -1,32 0,6 0,11 0,14 1,4 1,6 1,9 16,2 34,3 53,4 19,0 43,1 70,1 29,0 57,-1 83,-2 27,-1 51,-2 74,-4l-6 124 -458 0zm682 -124l18 0c38,0 65,-2 83,-5 18,-4 34,-11 47,-20 20,-13 36,-31 46,-54 10,-23 16,-49 16,-79 0,-44 -9,-77 -26,-98 -17,-20 -44,-31 -81,-31l-91 0 -10 194c0,8 -1,20 -1,37 -1,16 -1,35 -1,56zm-188 124c8,-68 15,-147 20,-237 5,-91 8,-190 10,-297l274 0c54,0 94,2 117,8 24,6 45,15 63,27 31,22 55,51 71,87 16,35 24,76 24,123 0,94 -28,166 -83,215 -56,49 -137,74 -243,74l-253 0zm805 0l-182 0c8,-68 15,-147 20,-237 5,-91 8,-190 10,-297l181 0c-1,13 -3,27 -4,43 -2,16 -3,38 -5,67l-15 250c-1,23 -2,49 -3,78 -1,29 -1,61 -2,96zm559 -406c-23,-7 -46,-13 -68,-16 -23,-4 -46,-6 -68,-6 -60,0 -106,15 -139,45 -34,30 -51,71 -51,125 0,49 15,86 45,110 29,24 75,35 137,35 22,0 44,-1 66,-4 22,-2 45,-7 69,-12l-20 125c-25,5 -50,9 -77,11 -26,3 -53,5 -80,5 -105,0 -185,-23 -239,-69 -55,-45 -83,-111 -83,-198 0,-92 30,-164 89,-214 59,-51 143,-76 250,-76 27,0 54,1 81,4 26,2 54,7 81,12l7 123zm219 406l-182 0c8,-68 15,-147 20,-237 5,-91 8,-190 10,-297l182 0c-2,13 -4,27 -5,43 -1,16 -3,38 -5,67l-15 250c-1,23 -2,49 -3,78 0,29 -1,61 -2,96zm503 -411l0 -3c1,-32 1,-55 1,-71 0,-6 0,-14 0,-25 0,-11 0,-19 0,-24l159 0c-3,24 -5,45 -7,63 -2,17 -3,33 -4,48l-16 304c-1,11 -1,21 -1,31 -1,9 -1,19 -1,29 0,5 0,14 1,27 0,14 0,24 0,32l-223 0c-22,-50 -44,-96 -64,-140 -2,-3 -3,-5 -3,-7l-116 -232 -10 213c-1,18 -2,53 -3,102 -1,27 -1,49 -2,64l-160 0c5,-40 10,-96 15,-169 5,-72 11,-194 18,-365l218 0 189 381 9 -258zm364 -59c3,-5 7,-13 11,-23 5,-10 11,-24 18,-41l225 0c1,10 3,19 5,29 2,9 5,18 8,28l166 477 -185 0c-1,-7 -2,-14 -4,-22 -1,-7 -3,-16 -6,-25l-31 -121 -202 0 -47 106c-4,10 -8,20 -12,31 -4,10 -7,20 -10,31l-187 0 251 -470zm130 10l-76 170 122 0 -46 -170zm728 -74c-8,54 -13,110 -17,170 -5,59 -7,120 -7,181 0,13 1,32 2,58 0,1 0,2 1,2 15,1 30,2 45,3 14,1 28,1 41,1 24,0 48,0 71,-1 23,-1 50,-3 80,-5l-7 125 -422 0c8,-66 14,-143 18,-233 5,-89 8,-189 10,-301l185 0zm471 64c3,-5 6,-13 11,-23 4,-10 10,-24 17,-41l225 0c2,10 3,19 6,29 2,9 5,18 8,28l166 477 -186 0c0,-7 -2,-14 -3,-22 -2,-7 -4,-16 -6,-25l-31 -121 -202 0 -48 106c-4,10 -8,20 -11,31 -4,10 -8,20 -11,31l-187 0 252 -470zm129 10l-76 170 123 0 -47 -170zm457 136l38 0c33,0 56,-4 71,-13 14,-9 21,-24 21,-44 0,-19 -5,-33 -16,-41 -11,-8 -30,-11 -58,-11l-50 0c0,2 0,9 -1,21 -1,11 -1,21 -2,30l-3 58zm-9 222l66 0c30,0 53,-5 67,-16 14,-11 22,-27 22,-49 0,-20 -6,-36 -19,-46 -12,-10 -31,-15 -55,-15l-78 0 -2 44c-1,6 -1,12 -1,19 0,8 0,19 0,35l0 28zm130 -432c63,0 109,9 138,29 29,19 43,50 43,92 0,36 -12,66 -35,89 -23,23 -56,38 -99,44 48,5 84,17 107,38 24,21 36,51 36,90 0,49 -18,87 -53,113 -36,26 -87,39 -154,39l-298 0c9,-70 16,-150 21,-240 5,-90 8,-188 10,-294l284 0zm379 267c0,51 13,90 38,116 26,26 64,38 114,38 48,0 86,-14 112,-42 26,-28 40,-69 40,-120 0,-48 -13,-85 -39,-110 -26,-25 -63,-37 -113,-37 -48,0 -85,13 -112,41 -26,27 -40,65 -40,114zm145 278c-104,0 -185,-24 -242,-71 -57,-47 -86,-112 -86,-197 0,-90 30,-161 89,-212 60,-51 141,-76 245,-76 108,0 191,22 249,69 58,46 86,112 86,198 0,91 -30,162 -90,213 -59,50 -143,76 -251,76zm683 -545c37,0 64,1 82,3 18,3 34,7 47,12 22,9 40,24 53,45 13,20 19,44 19,70 0,39 -8,72 -25,98 -18,26 -43,45 -76,57l100 249 -187 0 -105 -307 4 0c41,0 71,-5 91,-16 20,-11 30,-27 30,-49 0,-19 -8,-33 -22,-43 -15,-10 -37,-14 -67,-14 -8,0 -15,0 -23,1 -7,0 -15,1 -23,2l-15 252c-1,23 -2,49 -3,78 -1,29 -2,61 -2,96l-181 0c8,-68 14,-147 19,-237 5,-91 9,-190 10,-297l274 0zm376 64c4,-5 7,-13 12,-23 4,-10 10,-24 17,-41l225 0c1,10 3,19 5,29 3,9 6,18 9,28l165 477 -185 0c-1,-7 -2,-14 -3,-22 -2,-7 -4,-16 -6,-25l-31 -121 -203 0 -47 106c-4,10 -8,20 -12,31 -3,10 -7,20 -10,31l-187 0 251 -470zm130 10l-76 170 122 0 -46 -170zm753 -74l-7 123c-24,-2 -48,-4 -71,-5 -23,-2 -46,-2 -69,-2l-20 0 -15 244c-1,16 -2,32 -2,49 -1,16 -1,33 -1,51 0,20 0,35 0,45 1,10 1,20 1,29l-183 0c6,-44 11,-102 15,-172 5,-71 9,-153 12,-246 -35,0 -67,1 -94,2 -28,2 -52,3 -72,5l7 -123 499 0zm148 267c0,51 13,90 38,116 25,26 63,38 114,38 48,0 85,-14 112,-42 26,-28 39,-69 39,-120 0,-48 -13,-85 -38,-110 -26,-25 -64,-37 -113,-37 -48,0 -85,13 -112,41 -27,27 -40,65 -40,114zm144 278c-104,0 -184,-24 -241,-71 -57,-47 -86,-112 -86,-197 0,-90 30,-161 89,-212 59,-51 141,-76 245,-76 108,0 191,22 248,69 58,46 87,112 87,198 0,91 -30,162 -90,213 -60,50 -144,76 -252,76zm683 -545c37,0 65,1 83,3 18,3 33,7 47,12 22,9 39,24 52,45 13,20 20,44 20,70 0,39 -9,72 -26,98 -17,26 -42,45 -75,57l99 249 -186 0 -105 -307 4 0c41,0 71,-5 91,-16 19,-11 29,-27 29,-49 0,-19 -7,-33 -22,-43 -15,-10 -37,-14 -66,-14 -8,0 -16,0 -23,1 -8,0 -16,1 -24,2l-14 252c-1,23 -3,49 -4,78 0,29 -1,61 -2,96l-180 0c7,-68 14,-147 19,-237 5,-91 8,-190 10,-297l273 0zm384 534l-182 0c8,-68 15,-147 20,-237 5,-91 8,-190 10,-297l182 0c-2,13 -4,27 -5,43 -1,16 -3,38 -5,67l-15 250c-1,23 -2,49 -3,78 0,29 -1,61 -2,96zm230 -470c3,-5 7,-13 12,-23 4,-10 10,-24 17,-41l225 0c1,10 3,19 5,29 3,9 6,18 9,28l165 477 -185 0c-1,-7 -2,-14 -3,-22 -2,-7 -4,-16 -6,-25l-31 -121 -203 0 -47 106c-4,10 -8,20 -12,31 -3,10 -7,20 -10,31l-187 0 251 -470zm130 10l-76 170 122 0 -46 -170zm477 -74c-8,54 -13,110 -17,170 -4,59 -6,120 -6,181 0,13 0,32 1,58 0,1 0,2 1,2 15,1 31,2 45,3 14,1 28,1 41,1 24,0 48,0 71,-1 23,-1 50,-3 80,-5l-7 125 -422 0c8,-66 14,-143 18,-233 5,-89 8,-189 10,-301l185 0zm-6837 -2856c72,23 137,40 195,51 58,10 114,16 167,16 37,0 67,-7 90,-20 22,-14 33,-31 33,-54 0,-30 -43,-78 -130,-140 -14,-11 -25,-19 -33,-24 -1,-1 -2,-1 -3,-2 -194,-143 -291,-266 -291,-368 0,-96 42,-171 128,-225 85,-55 204,-82 357,-82 42,0 89,3 140,8 52,6 111,15 178,28l22 255c-65,-16 -118,-28 -159,-35 -40,-6 -75,-10 -103,-10 -52,0 -90,7 -116,20 -26,13 -39,33 -39,59 0,29 48,78 143,147 17,12 30,21 40,28 102,74 172,137 210,188 37,51 56,105 56,162 0,105 -43,184 -128,238 -85,53 -211,80 -379,80 -49,0 -103,-3 -161,-9 -59,-7 -122,-16 -189,-28l-28 -283zm1321 -384l81 0c69,0 119,-9 150,-28 31,-19 46,-50 46,-93 0,-41 -11,-69 -34,-86 -23,-16 -65,-24 -124,-24l-105 0c-1,5 -2,20 -3,45 -2,24 -3,45 -4,63l-7 123zm-19 468l140 0c64,0 112,-11 143,-34 30,-22 46,-57 46,-104 0,-42 -13,-74 -40,-95 -26,-22 -65,-32 -118,-32l-164 0 -5 92c-1,12 -1,25 -2,41 0,16 0,40 0,74l0 58zm276 -912c135,0 232,21 293,61 62,41 92,106 92,194 0,77 -25,139 -74,189 -50,49 -120,80 -211,93 102,9 178,36 228,80 50,44 75,107 75,189 0,104 -37,183 -112,238 -75,55 -184,82 -326,82l-633 0c19,-148 34,-316 44,-506 11,-189 17,-396 20,-620l604 0zm1023 0c82,0 141,3 176,8 35,5 66,14 94,26 46,21 83,56 110,104 27,48 41,103 41,165 0,120 -38,217 -115,289 -76,73 -176,109 -301,109 -9,0 -19,0 -31,-1 -12,-1 -26,-2 -41,-4l-82 -216c71,0 124,-11 158,-34 35,-23 52,-57 52,-104 0,-38 -13,-67 -38,-89 -25,-21 -60,-32 -106,-32 -17,0 -46,3 -86,7l-6 1 -27 532c-3,58 -5,117 -6,178 -2,61 -4,123 -6,187l-384 0c17,-142 30,-308 41,-499 10,-191 17,-400 21,-627l536 0zm1480 271c-49,-16 -97,-28 -146,-35 -48,-8 -96,-11 -143,-11 -127,0 -226,31 -297,94 -71,63 -106,151 -106,263 0,105 31,182 94,233 63,50 159,75 291,75 47,0 94,-3 141,-9 47,-6 96,-15 146,-27l-42 264c-53,11 -107,19 -163,25 -56,6 -113,9 -171,9 -222,0 -392,-48 -508,-144 -117,-96 -175,-236 -175,-420 0,-193 63,-344 189,-451 125,-107 302,-161 530,-161 57,0 114,3 172,9 57,6 115,15 173,27l15 259zm148 1013l-190 0 399 -1284 191 0 -400 1284zm1013 -1284c2,16 5,33 9,50 3,19 6,40 11,64l127 609 194 -572c12,-31 21,-59 28,-82 8,-24 14,-47 20,-69l513 0c-3,59 -6,126 -9,200 -1,17 -1,28 -1,34l-24 642c0,6 0,16 -1,32 -1,15 -1,28 -1,38 0,24 0,51 1,81 1,31 3,64 4,99l-355 0c4,-29 8,-60 11,-93 3,-32 5,-66 7,-101l22 -391c1,-8 1,-44 3,-106 2,-63 4,-118 6,-166l-262 721c-12,33 -21,60 -27,79 -6,19 -11,38 -16,57l-295 0c-3,-17 -6,-35 -9,-55 -4,-20 -8,-42 -14,-65l-166 -730 -48 550c-3,33 -6,73 -9,120 -3,48 -6,108 -10,180l-317 0c22,-138 42,-302 61,-493 17,-191 33,-402 44,-633l503 0zm1463 0c-15,114 -28,233 -36,359 -9,125 -13,253 -13,383 0,27 1,67 3,121 0,2 1,4 1,5 34,2 66,5 96,6 31,2 60,2 88,2 51,0 102,-1 151,-3 49,-2 106,-5 170,-10l-15 263 -897 0c16,-138 29,-301 39,-489 10,-188 17,-400 20,-637l393 0z"/>
 </g>
</svg>
